<?xml version="1.0" encoding="UTF-8" standalone="no"?>
<!-- Created with Inkscape (http://www.inkscape.org/) -->

<svg
   xmlns:dc="http://purl.org/dc/elements/1.1/"
   xmlns:cc="http://creativecommons.org/ns#"
   xmlns:rdf="http://www.w3.org/1999/02/22-rdf-syntax-ns#"
   xmlns:svg="http://www.w3.org/2000/svg"
   xmlns="http://www.w3.org/2000/svg"
   xmlns:xlink="http://www.w3.org/1999/xlink"
   xmlns:sodipodi="http://sodipodi.sourceforge.net/DTD/sodipodi-0.dtd"
   xmlns:inkscape="http://www.inkscape.org/namespaces/inkscape"
   width="202.25523mm"
   height="202.25523mm"
   viewBox="0 0 716.6524 716.6524"
   id="svg2"
   version="1.1"
   inkscape:version="0.91 r13725"
   sodipodi:docname="kleines_bild_normal.svg"
   inkscape:export-filename="/home/sonnenschein/HOME/wip/gezeichnetes Avatarbild/hellblau_rechteckig_laecheln_mittel.png"
   inkscape:export-xdpi="136.83502"
   inkscape:export-ydpi="136.83502">
  <defs
     id="defs4">
    <linearGradient
       id="linearGradient4454-8-7-6"
       inkscape:collect="always">
      <stop
         id="stop4615"
         offset="0"
         style="stop-color:#4d5bc2;stop-opacity:1" />
      <stop
         id="stop4617"
         offset="1"
         style="stop-color:#9efff9;stop-opacity:1" />
    </linearGradient>
    <linearGradient
       id="linearGradient4454"
       inkscape:collect="always">
      <stop
         id="stop5564"
         offset="0"
         style="stop-color:#006257;stop-opacity:1" />
      <stop
         id="stop5566"
         offset="1"
         style="stop-color:#006dfa;stop-opacity:1" />
    </linearGradient>
    <linearGradient
       id="linearGradient5337"
       inkscape:collect="always">
      <stop
         id="stop5339"
         offset="0"
         style="stop-color:#000000;stop-opacity:1" />
      <stop
         id="stop5341"
         offset="1"
         style="stop-color:#000000;stop-opacity:0" />
    </linearGradient>
    <linearGradient
       inkscape:collect="always"
       xlink:href="#linearGradient4454"
       id="linearGradient4460"
       x1="501.5625"
       y1="847.67468"
       x2="187.5"
       y2="74.237198"
       gradientUnits="userSpaceOnUse" />
    <radialGradient
       inkscape:collect="always"
       xlink:href="#linearGradient5337"
       id="radialGradient5335"
       cx="354.9827"
       cy="709.8017"
       fx="354.9827"
       fy="709.8017"
       r="277.1983"
       gradientTransform="matrix(1.2580696,-0.05445019,0.11018486,2.5458174,-172.65693,-1004.9581)"
       gradientUnits="userSpaceOnUse" />
    <linearGradient
       inkscape:collect="always"
       xlink:href="#linearGradient4454-8-7-6"
       id="linearGradient5588"
       gradientUnits="userSpaceOnUse"
       x1="-88.729378"
       y1="-2.4071045"
       x2="877.56183"
       y2="1013.6036" />
    <clipPath
       clipPathUnits="userSpaceOnUse"
       id="clipPath4353">
      <path
         style="display:inline;opacity:1;fill:none;fill-opacity:1;stroke:#000000;stroke-width:3.17629862;stroke-linecap:round;stroke-linejoin:round;stroke-miterlimit:4;stroke-dasharray:none;stroke-opacity:1"
         d="m -3.7497168,80.241615 716.6524068,0 0,716.652405 -716.6524068,0 z"
         id="path4355"
         inkscape:connector-curvature="0" />
    </clipPath>
  </defs>
  <sodipodi:namedview
     id="base"
     pagecolor="#ffffff"
     bordercolor="#666666"
     borderopacity="1.0"
     inkscape:pageopacity="0.0"
     inkscape:pageshadow="2"
     inkscape:zoom="0.32"
     inkscape:cx="334.83033"
     inkscape:cy="370.50021"
     inkscape:document-units="px"
     inkscape:current-layer="g5713"
     showgrid="false"
     inkscape:window-width="1315"
     inkscape:window-height="723"
     inkscape:window-x="51"
     inkscape:window-y="23"
     inkscape:window-maximized="1"
     fit-margin-top="0"
     fit-margin-left="0"
     fit-margin-right="0"
     fit-margin-bottom="0" />
  <metadata
     id="metadata7">
    <rdf:RDF>
      <cc:Work
         rdf:about="">
        <dc:format>image/svg+xml</dc:format>
        <dc:type
           rdf:resource="http://purl.org/dc/dcmitype/StillImage" />
        <dc:title></dc:title>
      </cc:Work>
    </rdf:RDF>
  </metadata>
  <g
     inkscape:groupmode="layer"
     id="g5713"
     inkscape:label="alles in einer ebene"
     style="display:inline"
     transform="translate(-10.250283,-80.241615)">
    <g
       id="g4321"
       clip-path="url(#clipPath4353)"
       transform="translate(14,0)">
      <rect
         y="-74.755508"
         x="-154.83665"
         height="1158.3677"
         width="1072.9315"
         id="rect5715"
         style="display:inline;opacity:1;fill:url(#linearGradient5588);fill-opacity:1;stroke:none;stroke-width:5;stroke-linecap:round;stroke-linejoin:round;stroke-miterlimit:4;stroke-dasharray:none;stroke-opacity:1" />
      <path
         sodipodi:nodetypes="ccccccccccccccccccccccccc"
         style="display:inline;opacity:1;fill:#ffccaa;fill-opacity:1;stroke:none;stroke-width:5;stroke-linecap:round;stroke-linejoin:round;stroke-miterlimit:4;stroke-dasharray:none;stroke-opacity:1"
         d="m 495.01122,614.08524 c -21.83259,28.19788 -54.73264,45.37887 -87.6358,57.33032 -28.37842,9.15205 -57.62488,15.73216 -87.26654,18.75305 -12.84192,0.35467 -25.85595,1.46267 -38.57496,-0.80237 -4.0285,-0.34609 -8.39831,-3.65132 -12.25512,-1.8023 -0.99046,4.45489 2.47792,8.86477 3.2489,13.27998 5.11334,16.46827 8.86951,33.5064 8.17226,50.83897 -0.34608,6.44319 0.49497,13.52885 -2.08889,19.54499 -1.81636,-0.59924 -0.14064,-4.37272 -0.33146,-6.31593 2.35931,-14.49129 0.68211,-29.49331 -2.39986,-43.79699 -2.85529,-3.10977 -7.21549,1.0521 -10.39581,1.81122 -9.1145,3.96404 -18.85219,6.44377 -28.00293,10.15778 -18.71714,20.13496 -79.16333,1.8468 -84.56883,29.25902 -14.67943,43.72416 18.24837,89.19111 55.53868,143.70563 22.66288,25.75787 25.32722,39.64978 45.22583,52.03077 24.41571,15.86957 53.91963,22.24299 82.71637,22.81342 23.09196,-0.0595 46.26553,-1.04183 68.95599,-5.64423 48.28418,-9.02096 95.70072,-24.03889 139.46381,-46.4859 29.83205,-15.7281 49.52821,-45.3141 61.95355,-75.84109 6.1474,-15.11201 11.69118,-30.65552 16.2472,-46.22349 -1.93099,-3.69777 -7.40963,-4.75445 -10.71336,-7.42056 -28.65647,-17.75096 -56.67919,-37.45793 -79.20405,-62.75218 -19.41099,-21.70746 -31.66126,-49.63132 -33.92314,-78.62581 -1.46629,-14.12755 -1.62134,-28.16984 -0.68588,-42.37845 -0.0868,-1.83 -2.12473,-2.67215 -3.47596,-1.43585 z"
         id="path5528"
         inkscape:connector-curvature="0" />
      <path
         style="display:inline;opacity:1;fill:#ffccaa;fill-opacity:1;stroke:none;stroke-width:5;stroke-linecap:round;stroke-linejoin:round;stroke-miterlimit:4;stroke-dasharray:none;stroke-opacity:1"
         d="m 341.71755,202.90308 c -38.43095,9.33818 -75.82084,23.82907 -109.77325,44.20014 -32.74937,20.27693 -62.8265,48.43005 -76.04217,85.4721 -2.52358,8.09386 -6.58241,16.40083 -4.0324,25.00673 4.75513,32.12067 7.99148,64.28227 7.36339,96.64092 1.48665,73.96769 27.03771,148.76066 77.10114,204.00848 11.6449,12.12853 23.86395,25.23029 40.11687,30.92506 22.66333,6.19581 46.50283,2.08984 69.26538,-1.39478 25.81618,-4.96258 51.87003,-10.37175 76.13584,-20.7552 29.39545,-13.07163 59.54027,-29.52561 77.02463,-57.65508 16.33016,-25.68065 20.01428,-56.59536 30.15562,-84.79079 1.97663,-6.49838 4.69996,-12.77923 7.83724,-18.70348 0.0486,-10.03306 -3.61516,-19.76221 -5.5044,-29.56599 -13.44653,-55.48909 -30.26175,-110.93286 -58.61665,-160.81184 -14.24221,-25.35816 -33.84469,-47.87549 -58.32467,-63.7899 -18.8147,-13.21839 -40.15231,-23.3688 -57.89791,-37.72832 -4.99019,-3.39244 -8.32045,-11.12974 -14.80866,-11.05805 z m 46.10444,192.89856 c 2.52455,0.0355 5.04304,0.33239 7.51495,0.84229 -2.06871,5.32397 4.70396,8.9202 3.78113,14.3753 0.45737,8.49675 -9.06473,15.15558 -17.04712,12.55036 -6.61443,-1.54163 -10.89272,-8.7504 -9.37042,-15.36713 0.77208,-2.98941 1.692,-6.80022 -0.13276,-9.12476 4.77099,-2.17481 10.0006,-3.37203 15.25422,-3.27606 z m 63.13934,8.55256 c 2.65171,0.58804 -1.82732,0.63208 -0.1175,-0.005 z m -230.6366,7.06939 c 6.03474,0.0176 12.09288,0.98211 17.75971,3.08532 -2.89809,4.08298 2.03969,8.42052 0.28381,12.88911 -1.15038,10.34761 -15.35371,14.54882 -23.10333,8.41675 -6.58345,-4.35609 -6.80061,-14.30996 -1.46637,-19.75708 0.0184,-4.18431 1.41337,-4.96762 5.45635,-4.62534 0.35653,-0.009 0.71322,-0.006 1.06983,-0.009 z m 110.99243,165.98968 c 15.97003,0.1635 31.94353,2.74179 47.91108,1.07117 -17.13114,11.57577 -33.62885,21.92641 -53.83758,27.64129 -13.9007,2.69109 -29.03401,2.96869 -41.76624,-4.12998 -6.15785,-2.92429 -12.79686,-5.07198 -18.46937,-8.80031 10.80046,-1.7424 19.79719,-8.61105 30.06745,-11.74317 6.46727,-1.22236 13.07529,3.6865 19.12231,-0.26397 5.18823,-2.9369 11.06253,-3.93501 16.97235,-3.77503 z"
         id="path5530"
         inkscape:connector-curvature="0"
         sodipodi:nodetypes="ccccccccccccccccccccccccccccccccccccccccccc" />
      <path
         sodipodi:nodetypes="cccccccccccccccccccccccccccccccc"
         style="display:inline;opacity:1;fill:url(#linearGradient4460);fill-opacity:1;stroke:none;stroke-width:5;stroke-linecap:round;stroke-linejoin:round;stroke-miterlimit:4;stroke-dasharray:none;stroke-opacity:1"
         d="m 319.70666,124.06364 c -48.41804,0.79858 -95.00568,24.03562 -127.55008,59.43979 -36.33349,38.16988 -59.87005,88.85809 -62.35182,141.7702 -9.16737,121.37589 -11.70257,243.13939 -15.88118,364.75986 -0.45976,24.08536 -1.84108,48.20617 -1.3855,72.28089 4.22923,8.32683 24.08714,-0.84298 30.9098,-1.00215 35.3756,-5.90191 37.08792,-8.84898 70.96173,-19.49491 6.148,-2.93409 32.37065,-10.36624 38.61004,-13.7223 7.9251,-3.40452 19.8131,-4.67178 23.3429,-13.60474 -2.65832,-15.62437 -7.46081,-32.28056 -20.64515,-42.44384 -59.90604,-54.26844 -90.71536,-135.81573 -92.51162,-215.75217 -2.1212,-32.04135 -0.768,-64.83328 -8.42527,-96.18631 -2.46268,-9.92527 3.14701,-20.46821 5.99976,-30.0415 18.77611,-45.87144 61.787,-76.61224 105.20935,-97.14661 24.48233,-11.11334 50.12763,-19.39318 75.69915,-26.67497 3.39587,-4.87137 5.16878,4.59521 8.93525,6.32584 31.48028,27.95931 74.1875,42.28304 100.07018,76.78833 37.10508,48.96908 56.11464,109.16605 71.98793,167.41334 4.47568,18.5728 9.5933,35.49435 11.72174,52.97205 0,0 -8.46334,16.35539 -11.74006,22.7268 -7.19622,24.44647 -13.98389,48.99961 -23.67248,72.60131 -2.87967,27.50448 -1.90445,56.05023 5.68237,82.8003 13.27718,43.14712 50.30925,73.44687 86.28374,97.92258 10.76242,5.8335 20.16587,16.40111 32.63715,18.05642 3.37866,-1.73771 5.5895,-3.18941 8.50832,0.71106 9.58293,6.25097 18.40739,15.46844 29.63256,18.22511 8.83814,-3.91964 3.37023,-16.2063 4.07289,-23.58945 -8.64211,-101.92908 -16.08959,-204.57405 -39.32455,-304.4545 -14.96915,-55.87335 -32.84248,-110.97318 -51.34503,-165.7671 -21.99847,-59.18625 -48.43792,-120.33611 -97.26867,-162.50305 -26.8822,-23.36747 -61.98608,-35.59347 -97.38309,-36.69632 -20.34111,-1.39322 -40.2755,-6.71571 -60.78036,-5.71396 z"
         id="path5532"
         inkscape:connector-curvature="0" />
      <path
         style="display:inline;opacity:1;fill:#333333;fill-opacity:1;stroke:none;stroke-width:5;stroke-linecap:round;stroke-linejoin:round;stroke-miterlimit:4;stroke-dasharray:none;stroke-opacity:1"
         d="m 131.34408,760.77366 c -29.03606,6.20357 -176.720925,34.76169 -205.95213,83.64978 -3.925137,73.70397 -5.192326,185.31046 1.927209,259.17556 213.417691,-3.9793 699.967301,-5.7696 894.395561,-8.3256 -0.39917,-42.3857 -9.71896,-167.11568 -11.10394,-209.30755 -5.10214,-6.74115 -108.71015,-44.03388 -115.91978,-48.71635 -22.91239,-9.77527 -43.72334,-23.62045 -64.95627,-36.33344 -9.28121,0.62103 -7.98134,13.63545 -11.79365,19.99061 -12.56742,36.53785 -27.86658,74.65744 -59.50152,98.61291 -41.39375,25.42041 -88.36189,35.96077 -135.44615,46.86585 -52.23002,10.76593 -112.66079,9.78775 -162.2101,-14.77661 -27.75594,-13.03032 -48.82421,-38.96874 -64.91394,-62.15516 -18.85705,-29.63644 -25.28606,-36.22996 -42.00964,-79.09122 -10.79242,-27.66012 -3.37728,-49.71346 -3.37728,-49.71346 0,0 14.52842,-4.87777 -19.13837,0.12468 z"
         id="path5534"
         inkscape:connector-curvature="0"
         sodipodi:nodetypes="ccccccccccccscc" />
      <path
         style="display:inline;opacity:1;fill:#ff8080;fill-opacity:1;stroke:none;stroke-width:5;stroke-linecap:round;stroke-linejoin:round;stroke-miterlimit:4;stroke-dasharray:none;stroke-opacity:1"
         d="m 334.44365,577.20975 c -7.5457,0.0506 -14.47601,-0.25436 -20.34148,4.89959 -4.25416,-1.61155 -13.00293,-2.00891 -17.59644,-1.66397 -6.22079,-0.002 -8.9221,3.15446 -14.37073,5.56869 -3.10296,1.72939 -15.65778,1.4583 -14.91755,5.94597 0.37536,3.76505 9.74922,4.16003 12.92886,3.82129 16.37302,0.27909 32.95481,0.61493 49.01727,-3.10534 11.19396,-2.40282 22.35925,-5.04483 33.35396,-8.229 3.94046,-1.48871 9.71431,-8.38502 5.78888,-9.95008 -4.79464,-1.43576 -13.67736,3.37075 -18.61613,2.72205 -5.46435,-0.40989 -9.76134,-0.0943 -15.24664,-0.009 z"
         id="path5536"
         inkscape:connector-curvature="0"
         sodipodi:nodetypes="ccccccccccc" />
      <path
         style="display:inline;opacity:1;fill:#ffaaaa;fill-opacity:1;stroke:none;stroke-width:5;stroke-linecap:round;stroke-linejoin:round;stroke-miterlimit:4;stroke-dasharray:none;stroke-opacity:1"
         d="m 370.98464,577.71175 c -10.22879,2.4469 -20.13487,5.35027 -30.45792,7.69845 -14.06195,3.47116 -28.60474,6.16239 -43.04137,5.86658 -9.16386,0.1263 -18.53301,-0.59927 -27.7611,-0.24971 -4.21985,0.64625 -1.61997,-0.18224 1.85987,2.22993 11.96024,8.56952 30.95795,15.77524 45.91159,15.3543 17.2823,0.16299 25.9204,-6.58876 40.50959,-15.09014 6.25824,-3.85587 18.60061,-14.82747 24.38495,-19.36323 2.93218,-3.34795 -6.96453,3.10674 -11.40561,3.55382 z"
         id="path5538"
         inkscape:connector-curvature="0"
         sodipodi:nodetypes="ccccccccc" />
      <path
         sodipodi:nodetypes="cccccccccccccccccccccccccccccccc"
         style="display:inline;opacity:1;fill:url(#radialGradient5335);fill-opacity:1;stroke:none;stroke-width:5;stroke-linecap:round;stroke-linejoin:round;stroke-miterlimit:4;stroke-dasharray:none;stroke-opacity:1"
         d="m 319.70666,124.06364 c -48.41804,0.79858 -95.00568,24.03562 -127.55008,59.43979 -36.33349,38.16988 -59.87005,88.85809 -62.35182,141.7702 -9.16737,121.37589 -11.70257,243.13939 -15.88118,364.75986 -0.45976,24.08536 -1.84108,48.20617 -1.3855,72.28089 4.22923,8.32683 14.69588,1.36673 21.51854,1.20756 35.3756,-5.90191 48.95024,-11.26451 82.82405,-21.91044 6.148,-2.93409 29.89959,-10.16042 36.13898,-13.51648 7.9251,-3.40452 19.8131,-4.67178 23.3429,-13.60474 -2.65832,-15.62437 -7.46081,-32.28056 -20.64515,-42.44384 -59.90604,-54.26844 -90.71536,-135.81573 -92.51162,-215.75217 -2.1212,-32.04135 -0.768,-64.83328 -8.42527,-96.18631 -2.46268,-9.92527 3.14701,-20.46821 5.99976,-30.0415 18.77611,-45.87144 61.787,-76.61224 105.20935,-97.14661 24.48233,-11.11334 50.12763,-19.39318 75.69915,-26.67497 3.39587,-4.87137 5.16878,4.59521 8.93525,6.32584 31.48028,27.95931 74.1875,42.28304 100.07018,76.78833 37.10508,48.96908 56.11464,109.16605 71.98793,167.41334 4.47568,18.5728 8.48845,36.04677 10.61689,53.52447 -9.4298,0.14388 -7.35849,15.80297 -10.63521,22.17438 -7.19622,24.44647 -13.98389,48.99961 -23.67248,72.60131 -2.87967,27.50448 -1.90445,56.05023 5.68237,82.8003 13.27718,43.14712 50.30925,73.44687 86.28374,97.92258 10.76242,5.8335 20.16587,16.40111 32.63715,18.05642 3.37866,-1.73771 5.5895,-3.18941 8.50832,0.71106 9.58293,6.25097 18.40739,15.46844 29.63256,18.22511 8.83814,-3.91964 3.37023,-16.2063 4.07289,-23.58945 -8.64211,-101.92908 -16.08959,-204.57405 -39.32455,-304.4545 -14.96915,-55.87335 -32.84248,-110.97318 -51.34503,-165.7671 -21.99847,-59.18625 -48.43792,-120.33611 -97.26867,-162.50305 -26.8822,-23.36747 -61.98608,-35.59347 -97.38309,-36.69632 -20.34111,-1.39322 -40.2755,-6.71571 -60.78036,-5.71396 z"
         id="path5331"
         inkscape:connector-curvature="0" />
      <path
         style="display:inline;opacity:0.98999999;fill:none;fill-rule:evenodd;stroke:#000000;stroke-width:5;stroke-linecap:round;stroke-linejoin:miter;stroke-miterlimit:4;stroke-dasharray:none;stroke-opacity:1"
         d="m 356.67839,151.06914 c 0,0 -18.59296,19.61929 -14.17354,46.1358 4.41942,26.5165 64.90239,42.26215 101.6466,81.75922 58.40568,62.78141 93.32076,213.47347 101.6466,289.47184 6.60775,60.31565 8.83883,162.98228 8.83883,171.82111"
         id="path5471"
         inkscape:connector-curvature="0"
         sodipodi:nodetypes="csssc" />
      <path
         style="display:inline;opacity:0.98999999;fill:none;fill-rule:evenodd;stroke:#000000;stroke-width:5;stroke-linecap:round;stroke-linejoin:miter;stroke-miterlimit:4;stroke-dasharray:none;stroke-opacity:1"
         d="m 344.66529,204.38235 c 0,0 -177.47779,35.47985 -193.10279,154.22985"
         id="path5473"
         inkscape:connector-curvature="0"
         sodipodi:nodetypes="cc" />
      <path
         style="display:inline;opacity:0.98999999;fill:none;fill-rule:evenodd;stroke:#000000;stroke-width:6;stroke-linecap:round;stroke-linejoin:miter;stroke-miterlimit:4;stroke-dasharray:none;stroke-opacity:1"
         d="m 114.0625,763.2997 c -0.68264,-9.57221 8.89098,-362.13398 18.75,-454.6875 9.22621,-86.6129 99.00293,-213.747177 240.625,-176.5625 157.46753,-6.50533 202.27223,206.6979 240.625,323.4375 38.40366,116.89448 51.5625,368.75 51.5625,368.75"
         id="path5475"
         inkscape:connector-curvature="0"
         sodipodi:nodetypes="cscsc" />
      <path
         style="display:inline;opacity:0.98999999;fill:none;fill-rule:evenodd;stroke:#000000;stroke-width:5;stroke-linecap:round;stroke-linejoin:miter;stroke-miterlimit:4;stroke-dasharray:none;stroke-opacity:1"
         d="m 153.21978,352.1889 c 13.27645,92.38092 5.03797,77.66973 8.90922,119.19951 5.19272,89.99902 51.27915,173.24979 103.496,210.66129 32.8125,23.4375 140.625,-10.9375 140.625,-10.9375 117.2994,-44.261 99.5926,-99.66707 128.77221,-168.5767"
         id="path5477"
         inkscape:connector-curvature="0"
         sodipodi:nodetypes="ccccc" />
      <path
         style="display:inline;opacity:0.98999999;fill:none;fill-rule:evenodd;stroke:#000000;stroke-width:5;stroke-linecap:round;stroke-linejoin:miter;stroke-miterlimit:4;stroke-dasharray:none;stroke-opacity:1"
         d="m 264.0625,680.4872 c 0,0 23.4375,51.5625 14.0625,90.625"
         id="path5479"
         inkscape:connector-curvature="0" />
      <path
         style="display:inline;opacity:0.98999999;fill:none;fill-rule:evenodd;stroke:#000000;stroke-width:5;stroke-linecap:round;stroke-linejoin:miter;stroke-miterlimit:4;stroke-dasharray:none;stroke-opacity:1"
         d="m 500,605.4872 c -6.12084,84.47384 8.12018,130.5108 121.875,198.4375"
         id="path5481"
         inkscape:connector-curvature="0"
         sodipodi:nodetypes="cc" />
      <path
         style="display:inline;opacity:0.98999999;fill:none;fill-rule:evenodd;stroke:#000000;stroke-width:6;stroke-linecap:round;stroke-linejoin:round;stroke-miterlimit:4;stroke-dasharray:none;stroke-opacity:1"
         d="m -73.822206,841.36523 c 62.955982,-45.55318 135.210856,-65.10699 229.290956,-85.09678 -16.05299,21.15279 -5.66095,79.81198 58.59375,157.03125 95.20216,114.411 311.46682,33.76086 345.3125,7.8125 46.875,-35.9375 58.59375,-101.5625 67.96875,-121.875 40.625,32.8125 181.54666,86.00255 181.54666,86.00255 l 12.01949,211.22725 -889.966746,1.1049 z"
         id="path5483"
         inkscape:connector-curvature="0"
         sodipodi:nodetypes="ccssccccc" />
      <path
         style="display:inline;opacity:0.98999999;fill:none;fill-rule:evenodd;stroke:#000000;stroke-width:5;stroke-linecap:round;stroke-linejoin:miter;stroke-miterlimit:4;stroke-dasharray:none;stroke-opacity:1"
         d="m 276.21359,424.80493 c 9.94369,39.77476 -40.87961,92.80777 2.20971,107.17088"
         id="path5485"
         inkscape:connector-curvature="0" />
      <path
         style="display:inline;opacity:0.98999999;fill:none;fill-rule:evenodd;stroke:#000000;stroke-width:5;stroke-linecap:round;stroke-linejoin:miter;stroke-miterlimit:4;stroke-dasharray:none;stroke-opacity:1"
         d="m 310.46407,527.55639 c 3.40963,-4.43526 10.40099,-5.3289 10.40134,-5.32896"
         id="path5487"
         inkscape:connector-curvature="0"
         sodipodi:nodetypes="cc" />
      <path
         style="display:inline;opacity:0.98999999;fill:none;fill-rule:evenodd;stroke:#000000;stroke-width:4;stroke-linecap:round;stroke-linejoin:round;stroke-miterlimit:4;stroke-dasharray:none;stroke-opacity:1"
         d="m 256.83356,588.29969 c 38.84422,1.30638 28.05703,-15.27544 55.27582,-4.68749 14.51582,-14.90203 29.29535,4.67955 79.22984,-18.87255 0,0 -11.92091,8.89275 -27.39447,14.62397 -15.47357,5.73122 -34.10916,11.81654 -46.75725,13.23295 -8.9295,0.99998 -23.82267,0.60936 -36.48347,-0.0313 -12.6608,-0.64062 -24.2611,-4.26562 -24.2611,-4.26562 z"
         id="path5489"
         inkscape:connector-curvature="0"
         sodipodi:nodetypes="cccssscc" />
      <path
         style="display:inline;opacity:0.98999999;fill:none;fill-rule:evenodd;stroke:#000000;stroke-width:4;stroke-linecap:round;stroke-linejoin:round;stroke-miterlimit:4;stroke-dasharray:none;stroke-opacity:1"
         d="m 256.50995,588.73771 c 59.74872,35.49428 81.60798,21.07997 135.05811,-23.44564"
         id="path5491"
         inkscape:connector-curvature="0"
         sodipodi:nodetypes="cc" />
      <path
         style="display:inline;opacity:0.98999999;fill:none;fill-rule:evenodd;stroke:#000000;stroke-width:5;stroke-linecap:round;stroke-linejoin:miter;stroke-miterlimit:4;stroke-dasharray:none;stroke-opacity:1"
         d="m 172.65625,393.76845 c 32.27729,-23.88333 57.95405,-22.41171 84.375,-7.03125"
         id="path5493"
         inkscape:connector-curvature="0"
         sodipodi:nodetypes="cc" />
      <path
         style="display:inline;opacity:0.98999999;fill:none;fill-rule:evenodd;stroke:#000000;stroke-width:5;stroke-linecap:round;stroke-linejoin:miter;stroke-miterlimit:4;stroke-dasharray:none;stroke-opacity:1"
         d="m 351.69197,375.79007 c 26.107,-15.73687 59.33956,-24.07646 87.68956,-8.68853"
         id="path5495"
         inkscape:connector-curvature="0"
         sodipodi:nodetypes="cc" />
      <ellipse
         style="display:inline;opacity:1;fill:#000000;fill-opacity:1;stroke:#000000;stroke-width:4.97494793;stroke-linecap:round;stroke-linejoin:round;stroke-miterlimit:4;stroke-dasharray:none;stroke-opacity:1"
         id="ellipse5497"
         cx="385.75598"
         cy="411.12256"
         rx="15.642289"
         ry="15.123373" />
      <ellipse
         style="display:inline;opacity:1;fill:#000000;fill-opacity:1;stroke:#000000;stroke-width:5;stroke-linecap:round;stroke-linejoin:round;stroke-miterlimit:4;stroke-dasharray:none;stroke-opacity:1"
         id="ellipse5501"
         cx="224.28543"
         cy="425.63358"
         rx="16.572815"
         ry="15.191748" />
      <ellipse
         style="display:inline;opacity:1;fill:#000000;fill-opacity:1;stroke:#000000;stroke-width:5.17433119;stroke-linecap:round;stroke-linejoin:round;stroke-miterlimit:4;stroke-dasharray:none;stroke-opacity:1"
         id="ellipse5503"
         cx="451.1712"
         cy="404.64133"
         rx="3.0655954"
         ry="2.3987567" />
      <ellipse
         style="display:inline;opacity:1;fill:#000000;fill-opacity:1;stroke:#000000;stroke-width:4.13369083;stroke-linecap:round;stroke-linejoin:round;stroke-miterlimit:4;stroke-dasharray:none;stroke-opacity:1"
         id="ellipse5505"
         cx="448.78006"
         cy="420.33813"
         rx="2.299629"
         ry="3.2426813" />
      <path
         style="display:inline;opacity:0.98999999;fill:none;fill-rule:evenodd;stroke:#000000;stroke-width:5;stroke-linecap:round;stroke-linejoin:miter;stroke-miterlimit:4;stroke-dasharray:none;stroke-opacity:1"
         d="M 154.86475,758.88981 C 199.57446,751.01512 275.6043,717.99432 275,717.20595"
         id="path5507"
         inkscape:connector-curvature="0"
         sodipodi:nodetypes="cc" />
      <ellipse
         style="display:inline;opacity:1;fill:#ffffff;fill-opacity:1;stroke:#ffffff;stroke-width:3.5341258;stroke-linecap:round;stroke-linejoin:round;stroke-miterlimit:4;stroke-dasharray:none;stroke-opacity:1"
         id="ellipse5509"
         cx="278.04916"
         cy="514.43549"
         rx="3.6198726"
         ry="3.011585"
         transform="matrix(0.94467513,-0.32800746,-0.09581597,0.99539907,0,0)" />
      <path
         style="display:inline;opacity:0.98999999;fill:none;fill-rule:evenodd;stroke:#000000;stroke-width:6;stroke-linecap:round;stroke-linejoin:miter;stroke-miterlimit:4;stroke-dasharray:none;stroke-opacity:1"
         d="m 182.04944,435.6435 c 14.14876,-12.48252 20.12266,-22.21412 34.3571,-26.03539 13.70237,-3.67844 28.49573,3.64719 39.29296,14.94759"
         id="path5499"
         inkscape:connector-curvature="0"
         sodipodi:nodetypes="csc" />
      <path
         style="display:inline;opacity:0.98999999;fill:none;fill-rule:evenodd;stroke:#000000;stroke-width:6;stroke-linecap:round;stroke-linejoin:miter;stroke-miterlimit:4;stroke-dasharray:none;stroke-opacity:1"
         d="m 342.0245,423.85297 c 17.14428,-16.63182 27.88449,-28.48933 41.08129,-28.83452 29.07611,-0.76054 30.05918,12.48169 44.27603,19.10816"
         id="path5511"
         inkscape:connector-curvature="0"
         sodipodi:nodetypes="csc" />
      <ellipse
         style="display:inline;opacity:1;fill:#ffffff;fill-opacity:1;stroke:#ffffff;stroke-width:3.5341258;stroke-linecap:round;stroke-linejoin:round;stroke-miterlimit:4;stroke-dasharray:none;stroke-opacity:1"
         id="ellipse5513"
         cx="454.54755"
         cy="558.07574"
         rx="3.6198726"
         ry="3.011585"
         transform="matrix(0.94467513,-0.32800746,-0.09581597,0.99539907,0,0)" />
    </g>
  </g>
</svg>
