<?xml version="1.0" encoding="UTF-8" standalone="no"?>
<!-- Created with Inkscape (http://www.inkscape.org/) -->

<svg
   width="203.15166mm"
   height="203.15166mm"
   viewBox="0 0 719.82871 719.8287"
   id="svg2"
   version="1.1"
   xml:space="preserve"
   xmlns:xlink="http://www.w3.org/1999/xlink"
   xmlns="http://www.w3.org/2000/svg"
   xmlns:svg="http://www.w3.org/2000/svg"
   xmlns:rdf="http://www.w3.org/1999/02/22-rdf-syntax-ns#"
   xmlns:cc="http://creativecommons.org/ns#"
   xmlns:dc="http://purl.org/dc/elements/1.1/"><path
     id="rect360"
     style="display:inline;opacity:1;fill:none;stroke:#000000;stroke-width:3.1763;stroke-linecap:round;stroke-linejoin:round"
     d="M 1.5881508,1.5881499 H 718.24056 V 718.24056 H 1.5881508 Z" /><defs
     id="defs4"><linearGradient
       id="linearGradient4698"><stop
         style="stop-color:#2e1d9b;stop-opacity:1;"
         offset="0"
         id="stop4694" /><stop
         style="stop-color:#95f1f3;stop-opacity:1;"
         offset="1"
         id="stop4696" /></linearGradient><linearGradient
       id="linearGradient2484"><stop
         style="stop-color:#492300;stop-opacity:1;"
         offset="0"
         id="stop2478" /><stop
         id="stop2480"
         offset="0.57373679"
         style="stop-color:#4e2400;stop-opacity:1;" /><stop
         style="stop-color:#9e4e00;stop-opacity:1;"
         offset="1"
         id="stop2482" /></linearGradient><linearGradient
       id="linearGradient996-1"><stop
         id="stop994"
         offset="0"
         style="stop-color:#92fff9;stop-opacity:1" /><stop
         id="stop992"
         offset="1"
         style="stop-color:#eaca86;stop-opacity:1" /></linearGradient><linearGradient
       id="linearGradient1053-0"><stop
         style="stop-color:#ffffff;stop-opacity:1;"
         offset="0"
         id="stop1049" /><stop
         style="stop-color:#ffedbc;stop-opacity:1"
         offset="1"
         id="stop1051" /></linearGradient><linearGradient
       id="linearGradient1041"><stop
         style="stop-color:#552900;stop-opacity:1;"
         offset="0"
         id="stop1037" /><stop
         id="stop1043"
         offset="0.44489011"
         style="stop-color:#763700;stop-opacity:1;" /><stop
         style="stop-color:#834000;stop-opacity:1;"
         offset="1"
         id="stop1039" /></linearGradient><linearGradient
       id="linearGradient4454-8-7-2"><stop
         style="stop-color:#18002a;stop-opacity:1"
         offset="0"
         id="stop5622" /><stop
         style="stop-color:#8be5ff;stop-opacity:1;"
         offset="1"
         id="stop5624" /></linearGradient><linearGradient
       id="linearGradient4454-8-7-9"><stop
         style="stop-color:#de3800;stop-opacity:1"
         offset="0"
         id="stop5610" /><stop
         style="stop-color:#fed500;stop-opacity:1"
         offset="1"
         id="stop5612" /></linearGradient><linearGradient
       id="linearGradient4454-8"><stop
         id="stop5582"
         offset="0"
         style="stop-color:#006255;stop-opacity:1" /><stop
         id="stop5584"
         offset="1"
         style="stop-color:#fabb00;stop-opacity:1" /></linearGradient><linearGradient
       id="linearGradient5337"><stop
         id="stop5339"
         offset="0"
         style="stop-color:#000000;stop-opacity:1" /><stop
         id="stop5341"
         offset="1"
         style="stop-color:#000000;stop-opacity:0" /></linearGradient><linearGradient
       xlink:href="#linearGradient4454-8"
       id="linearGradient5560"
       x1="17.520622"
       y1="166.3429"
       x2="865.06183"
       y2="919.85358"
       gradientUnits="userSpaceOnUse"
       gradientTransform="translate(-10.91605,-80.131094)" /><linearGradient
       xlink:href="#linearGradient4454-8-7-2"
       id="linearGradient5588"
       gradientUnits="userSpaceOnUse"
       x1="-88.729378"
       y1="-2.4071045"
       x2="877.56183"
       y2="1013.6036"
       gradientTransform="translate(-10.91605,-80.131094)" /><linearGradient
       xlink:href="#linearGradient4454-8-7-9"
       id="linearGradient5614"
       gradientUnits="userSpaceOnUse"
       x1="-88.729378"
       y1="-2.4071045"
       x2="877.56183"
       y2="1013.6036"
       gradientTransform="translate(-10.91605,-80.131094)" /><radialGradient
       xlink:href="#linearGradient1053-0"
       id="radialGradient1057"
       cx="429.94592"
       cy="492.49417"
       fx="429.94592"
       fy="492.49417"
       r="536.46576"
       gradientTransform="matrix(0.65581315,-0.39202609,0.66623117,1.1145257,-191.04928,31.065366)"
       gradientUnits="userSpaceOnUse" /><linearGradient
       xlink:href="#linearGradient996-1"
       id="linearGradient998"
       x1="-80.750839"
       y1="-4.5089912"
       x2="885.88361"
       y2="890.96301"
       gradientUnits="userSpaceOnUse"
       gradientTransform="translate(5.3378668,-78.653465)" /><linearGradient
       xlink:href="#linearGradient2484"
       id="linearGradient2476"
       gradientUnits="userSpaceOnUse"
       x1="9.2165718"
       y1="876.56232"
       x2="380.62228"
       y2="47.374557" /><linearGradient
       xlink:href="#linearGradient1041"
       id="linearGradient2749"
       gradientUnits="userSpaceOnUse"
       x1="378.47601"
       y1="874.05035"
       x2="428.3497"
       y2="47.374557" /><linearGradient
       xlink:href="#linearGradient4698"
       id="linearGradient4692"
       gradientUnits="userSpaceOnUse"
       x1="-234.98817"
       y1="-225.85803"
       x2="877.56183"
       y2="1013.6036"
       gradientTransform="translate(-10.91605,-80.131094)" /><radialGradient
       xlink:href="#linearGradient5337"
       id="radialGradient3412"
       gradientUnits="userSpaceOnUse"
       gradientTransform="matrix(1.2580696,-0.05445019,0.11018486,2.5458174,-172.65693,-1004.9581)"
       cx="354.9827"
       cy="709.8017"
       fx="354.9827"
       fy="709.8017"
       r="277.1983" /></defs><metadata
     id="metadata7"><rdf:RDF><cc:Work
         rdf:about=""><dc:format>image/svg+xml</dc:format><dc:type
           rdf:resource="http://purl.org/dc/dcmitype/StillImage" /></cc:Work></rdf:RDF></metadata><path
     id="rect988"
     style="display:inline;fill:url(#linearGradient998);fill-opacity:1;stroke:none;stroke-width:5;stroke-linecap:round;stroke-linejoin:round;stroke-miterlimit:4;stroke-dasharray:none;stroke-opacity:1"
     d="M 1.5878668,1.5888449 V 718.23985 H 718.2407 V 1.5888449 Z" /><path
     id="rect1045"
     style="display:none;fill:url(#radialGradient1057);fill-opacity:1;stroke:none;stroke-width:5;stroke-linecap:round;stroke-linejoin:round;stroke-miterlimit:4;stroke-dasharray:none;stroke-opacity:1"
     d="M -14.66605,0.11121589 V 716.76222 H 701.98678 V 0.11121589 Z" /><path
     id="rect5550"
     style="display:none;fill:url(#linearGradient5560);fill-opacity:1;stroke:none;stroke-width:5;stroke-linecap:round;stroke-linejoin:round;stroke-miterlimit:4;stroke-dasharray:none;stroke-opacity:1"
     d="M -14.66605,0.11121589 V 716.76222 H 701.98678 V 0.11121589 Z" /><path
     id="rect5578"
     style="display:none;fill:url(#linearGradient5614);fill-opacity:1;stroke:none;stroke-width:5;stroke-linecap:round;stroke-linejoin:round;stroke-miterlimit:4;stroke-dasharray:none;stroke-opacity:1"
     d="M -14.66605,0.11121589 V 716.76222 H 701.98678 V 0.11121589 Z" /><path
     id="rect5598"
     style="display:none;fill:url(#linearGradient4692);fill-opacity:1;stroke:none;stroke-width:4.99969;stroke-linecap:round;stroke-linejoin:round;stroke-miterlimit:4;stroke-dasharray:none;stroke-opacity:1"
     d="M -14.66605,0.11121589 V 716.76222 H 701.98678 V 0.11121589 Z" /><path
     id="rect943"
     style="display:none;fill:url(#linearGradient5588);fill-opacity:1;stroke:none;stroke-width:5;stroke-linecap:round;stroke-linejoin:round;stroke-miterlimit:4;stroke-dasharray:none;stroke-opacity:1"
     d="M -14.66605,0.11121589 V 716.76222 H 701.98678 V 0.11121589 Z" /><g
     id="g2159"
     style="display:inline"
     transform="translate(5.3378668,-78.653465)"><path
       id="path2147"
       style="opacity:1;fill:#ffccaa;fill-opacity:1;stroke:none;stroke-width:5;stroke-linecap:round;stroke-linejoin:round;stroke-miterlimit:4;stroke-dasharray:none;stroke-opacity:1"
       d="m 497.52686,600.14099 c -27.20917,42.35638 -58.52943,62.6645 -89.31519,74.20349 -28.37839,9.15204 -58.4614,12.80309 -88.10303,15.82398 -12.8419,0.35467 -25.85583,1.46303 -38.57483,-0.802 -4.02849,-0.34609 -8.39844,-3.65078 -12.25525,-1.80176 -0.99045,4.45488 2.47732,8.8636 3.2483,13.27881 5.11333,16.46825 8.87107,33.50668 8.17382,50.83923 -0.34608,6.44318 0.49463,13.52854 -2.08923,19.54468 -1.81636,-0.59924 -0.1406,-4.3721 -0.33142,-6.31531 2.35931,-14.49127 0.68145,-29.49333 -2.40051,-43.797 -2.85529,-3.10976 -7.21458,1.0518 -10.3949,1.81092 -9.11449,3.96403 -18.85342,6.44468 -28.00415,10.15869 -35.04491,13.85502 -57.81188,14.40607 -84.56909,29.25842 -3.52772,10.50766 -8.5994,22.18529 -13.72925,34.55017 h 469.422 c -27.35162,-17.14962 -53.95976,-36.17138 -75.50721,-60.36804 -19.41097,-21.70744 -31.66207,-49.63103 -33.92395,-78.62549 -1.46628,-14.12753 2.0222,-40.202 -1.64611,-57.75879 z" /><path
       style="opacity:1;fill:#ffccaa;fill-opacity:1;stroke:none;stroke-width:5;stroke-linecap:round;stroke-linejoin:round;stroke-miterlimit:4;stroke-dasharray:none;stroke-opacity:1"
       d="m 369.57874,211.37193 c -45.10253,-3.2637 -106.33924,16.93229 -140.29165,37.30336 -36.93214,22.36831 -60.69566,32.73408 -77.83268,75.00459 -2.52358,8.09386 -2.13469,25.29627 0.41532,33.90217 4.75513,32.12067 7.99148,64.28227 7.36339,96.64092 1.48665,73.96769 27.03771,148.76066 77.10114,204.00848 11.6449,12.12853 23.86395,25.23029 40.11687,30.92506 22.66333,6.19581 46.50283,2.08984 69.26538,-1.39478 25.81618,-4.96258 52.83126,-6.52683 77.09707,-16.91028 29.39545,-13.07163 52.81167,-40.09913 70.29603,-68.2286 10.56278,-33.37049 19.05305,-53.71168 35.92299,-78.06219 1.97663,-6.49838 4.69996,-12.77923 7.83724,-18.70348 0.0486,-10.03306 -3.61516,-19.76221 -5.5044,-29.56599 -13.44653,-55.48909 -30.26175,-110.93286 -58.61665,-160.81184 -14.24221,-25.35816 -33.84469,-47.87549 -58.32467,-63.7899 -19.76529,-8.9417 -23.19571,-41.70054 -44.84538,-40.31752 z m 18.24325,184.42971 c 2.52455,0.0355 5.04304,0.33239 7.51495,0.84229 -2.06871,5.32397 4.70396,8.9202 3.78113,14.3753 0.45737,8.49675 -9.06473,15.15558 -17.04712,12.55036 -6.61443,-1.54163 -10.89272,-8.7504 -9.37042,-15.36713 0.77208,-2.98941 1.692,-6.80022 -0.13276,-9.12476 4.77099,-2.17481 10.0006,-3.37203 15.25422,-3.27606 z m 63.13934,8.55256 c 2.65171,0.58804 -1.82732,0.63208 -0.1175,-0.005 z m -230.6366,7.06939 c 6.03474,0.0176 12.09288,0.98211 17.75971,3.08532 -2.89809,4.08298 2.03969,8.42052 0.28381,12.88911 -1.15038,10.34761 -15.35371,14.54882 -23.10333,8.41675 -6.58345,-4.35609 -6.80061,-14.30996 -1.46637,-19.75708 0.0184,-4.18431 1.41337,-4.96762 5.45635,-4.62534 0.35653,-0.009 0.71322,-0.006 1.06983,-0.009 z m 110.99243,165.98968 c 15.97003,0.1635 31.94353,2.74179 47.91108,1.07117 -17.13114,11.57577 -33.62885,21.92641 -53.83758,27.64129 -13.9007,2.69109 -29.03401,2.96869 -41.76624,-4.12998 -6.15785,-2.92429 -12.79686,-5.07198 -18.46937,-8.80031 10.80046,-1.7424 19.79719,-8.61105 30.06745,-11.74317 6.46727,-1.22236 13.07529,3.6865 19.12231,-0.26397 5.18823,-2.9369 11.06253,-3.93501 16.97235,-3.77503 z"
       id="path2149" /><path
       id="path2151"
       style="opacity:1;fill:#333333;fill-opacity:1;stroke:none;stroke-width:5;stroke-linecap:round;stroke-linejoin:round;stroke-miterlimit:4;stroke-dasharray:none;stroke-opacity:1"
       d="m 152.19543,758.53638 c -2.37783,-0.12464 -8.22701,0.36163 -20.85205,2.23755 -17.78063,3.79884 -80.007775,16.01999 -132.32665637,36.11938 H 146.79199 c 1.69546,-20.06547 3.68958,-36.24389 3.68958,-36.24389 0,0 5.67692,-1.90531 1.71386,-2.11304 z" /><path
       style="opacity:1;fill:#ff8080;fill-opacity:1;stroke:none;stroke-width:5;stroke-linecap:round;stroke-linejoin:round;stroke-miterlimit:4;stroke-dasharray:none;stroke-opacity:1"
       d="m 334.44365,577.20975 c -7.5457,0.0506 -14.47601,-0.25436 -20.34148,4.89959 -4.25416,-1.61155 -13.00293,-2.00891 -17.59644,-1.66397 -6.22079,-0.002 -8.9221,3.15446 -14.37073,5.56869 -3.10296,1.72939 -15.65778,1.4583 -14.91755,5.94597 0.37536,3.76505 9.74922,4.16003 12.92886,3.82129 16.37302,0.27909 32.95481,0.61493 49.01727,-3.10534 11.19396,-2.40282 22.35925,-5.04483 33.35396,-8.229 3.94046,-1.48871 9.71431,-8.38502 5.78888,-9.95008 -4.79464,-1.43576 -13.67736,3.37075 -18.61613,2.72205 -5.46435,-0.40989 -9.76134,-0.0943 -15.24664,-0.009 z"
       id="path2153" /><path
       style="opacity:1;fill:#ffaaaa;fill-opacity:1;stroke:none;stroke-width:5;stroke-linecap:round;stroke-linejoin:round;stroke-miterlimit:4;stroke-dasharray:none;stroke-opacity:1"
       d="m 370.98464,577.71175 c -10.22879,2.4469 -20.13487,5.35027 -30.45792,7.69845 -14.06195,3.47116 -28.60474,6.16239 -43.04137,5.86658 -9.16386,0.1263 -18.53301,-0.59927 -27.7611,-0.24971 -4.21985,0.64625 -1.61997,-0.18224 1.85987,2.22993 11.96024,8.56952 30.95795,15.77524 45.91159,15.3543 17.2823,0.16299 25.9204,-6.58876 40.50959,-15.09014 6.25824,-3.85587 18.60061,-14.82747 24.38495,-19.36323 2.93218,-3.34795 -6.96453,3.10674 -11.40561,3.55382 z"
       id="path2155" /></g><g
     id="g2051"
     style="display:inline"
     transform="translate(5.3378668,-78.653465)"><path
       style="opacity:1;fill:url(#linearGradient2476);fill-opacity:1;stroke:none;stroke-width:5;stroke-linecap:round;stroke-linejoin:round;stroke-miterlimit:4;stroke-dasharray:none;stroke-opacity:1"
       d="m 317.1146,131.4272 c -48.41804,0.79858 -100.29995,25.306 -150.66791,81.98217 -45.52043,53.60261 -55.84156,91.99801 -71.102473,155.32836 -8.320373,34.52821 -13.024539,92.0314 -2.506328,173.07102 5.499033,42.36838 -9.553158,103.94898 39.203981,123.92092 9.56337,-3.7255 12.88129,-3.67618 22.70987,-0.90166 3.76417,20.66135 13.08662,25.67394 28.20907,42.28786 12.37958,-16.15549 25.63289,-18.68342 40.40703,-20.88489 8.09668,23.49797 29.50528,24.0068 52.99471,28.2593 -2.65832,-15.62437 -7.46081,-32.28056 -20.64515,-42.44384 -57.39407,-45.47655 -90.71536,-135.81573 -92.51162,-215.75217 -2.1212,-32.04135 -3.73315,-64.83328 -5.46012,-96.18631 -2.46268,-9.92527 -0.11392,-22.19577 0.0459,-33.72756 29.64559,-37.22583 43.65765,-53.18906 80.40842,-78.17115 40.5405,-20.91435 76.79871,-36.45767 130.68292,-35.94411 31.73078,-65.54881 103.53939,-31.79983 51.63317,-59.54429 C 408.7557,128.4946 337.61946,130.42545 317.1146,131.4272 Z"
       id="path2049" /></g><g
     id="g2099"
     style="display:inline;opacity:0.99"
     transform="translate(5.3378668,-78.653465)"><path
       style="fill:none;fill-rule:evenodd;stroke:#000000;stroke-width:5;stroke-linecap:round;stroke-linejoin:miter;stroke-miterlimit:4;stroke-dasharray:none;stroke-opacity:1"
       d="m 157.4136,328.12399 c -0.67628,87.71645 8.53398,98.85095 4.7154,143.26442 5.19272,89.99902 51.27915,173.24979 103.496,210.66129 32.8125,23.4375 132.49951,-4.16626 132.49951,-4.16626 98.33993,-23.94728 100.30522,-101.2493 127.26097,-154.59191"
       id="path2061" /><path
       style="fill:none;fill-rule:evenodd;stroke:#000000;stroke-width:5;stroke-linecap:round;stroke-linejoin:miter;stroke-miterlimit:4;stroke-dasharray:none;stroke-opacity:1"
       d="m 276.21359,424.80493 c 9.94369,39.77476 -40.87961,92.80777 2.20971,107.17088"
       id="path2069" /><path
       style="fill:none;fill-rule:evenodd;stroke:#000000;stroke-width:5;stroke-linecap:round;stroke-linejoin:miter;stroke-miterlimit:4;stroke-dasharray:none;stroke-opacity:1"
       d="m 310.46407,527.55639 c 3.40963,-4.43526 10.40099,-5.3289 10.40134,-5.32896"
       id="path2071" /><path
       style="fill:none;fill-rule:evenodd;stroke:#3e1f00;stroke-width:6.87469;stroke-linecap:round;stroke-linejoin:miter;stroke-miterlimit:4;stroke-dasharray:none;stroke-opacity:1"
       d="m 168.90625,393.76845 c 17.01912,-25.23758 49.77607,-20.82131 88.125,-7.03125"
       id="path2077" /><path
       style="fill:none;fill-rule:evenodd;stroke:#3e1f00;stroke-width:6.87469;stroke-linecap:round;stroke-linejoin:miter;stroke-miterlimit:4;stroke-dasharray:none;stroke-opacity:1"
       d="m 336.69197,375.79007 c 44.39657,-17.32727 68.08674,-24.87166 99.61754,-6.30293"
       id="path2079" /><ellipse
       style="opacity:1;fill:#000000;fill-opacity:1;stroke:#000000;stroke-width:4.97495;stroke-linecap:round;stroke-linejoin:round;stroke-miterlimit:4;stroke-dasharray:none;stroke-opacity:1"
       id="ellipse2081"
       cx="385.75598"
       cy="411.12256"
       rx="15.642289"
       ry="15.123373" /><ellipse
       style="opacity:1;fill:#000000;fill-opacity:1;stroke:#000000;stroke-width:5;stroke-linecap:round;stroke-linejoin:round;stroke-miterlimit:4;stroke-dasharray:none;stroke-opacity:1"
       id="ellipse2083"
       cx="224.28543"
       cy="425.63358"
       rx="16.572815"
       ry="15.191748" /><ellipse
       style="opacity:1;fill:#000000;fill-opacity:1;stroke:#3e1f00;stroke-width:5.17433;stroke-linecap:round;stroke-linejoin:round;stroke-miterlimit:4;stroke-dasharray:none;stroke-opacity:1"
       id="ellipse2085"
       cx="451.1712"
       cy="404.64133"
       rx="3.0655954"
       ry="2.3987567" /><ellipse
       style="opacity:1;fill:#000000;fill-opacity:1;stroke:#3e1f00;stroke-width:4.13369;stroke-linecap:round;stroke-linejoin:round;stroke-miterlimit:4;stroke-dasharray:none;stroke-opacity:1"
       id="ellipse2087"
       cx="448.78006"
       cy="420.33813"
       rx="2.299629"
       ry="3.2426813" /><path
       style="fill:none;fill-rule:evenodd;stroke:#000000;stroke-width:5;stroke-linecap:round;stroke-linejoin:miter;stroke-miterlimit:4;stroke-dasharray:none;stroke-opacity:1"
       d="M 154.86475,758.88981 C 199.57446,751.01512 275.6043,717.99432 275,717.20595"
       id="path2089" /><ellipse
       style="opacity:1;fill:#ffffff;fill-opacity:1;stroke:#ffffff;stroke-width:3.53413;stroke-linecap:round;stroke-linejoin:round;stroke-miterlimit:4;stroke-dasharray:none;stroke-opacity:1"
       id="ellipse2091"
       cx="278.04916"
       cy="514.43549"
       rx="3.6198726"
       ry="3.011585"
       transform="matrix(0.94467513,-0.32800746,-0.09581597,0.99539907,0,0)" /><path
       style="fill:none;fill-rule:evenodd;stroke:#000000;stroke-width:6;stroke-linecap:round;stroke-linejoin:miter;stroke-miterlimit:4;stroke-dasharray:none;stroke-opacity:1"
       d="m 182.04944,435.6435 c 14.14876,-12.48252 20.12266,-22.21412 34.3571,-26.03539 13.70237,-3.67844 28.49573,3.64719 39.29296,14.94759"
       id="path2093" /><path
       style="fill:none;fill-rule:evenodd;stroke:#000000;stroke-width:6;stroke-linecap:round;stroke-linejoin:miter;stroke-miterlimit:4;stroke-dasharray:none;stroke-opacity:1"
       d="m 342.0245,423.85297 c 17.14428,-16.63182 27.88449,-28.48933 41.08129,-28.83452 29.07611,-0.76054 30.05918,12.48169 44.27603,19.10816"
       id="path2095" /><ellipse
       style="opacity:1;fill:#ffffff;fill-opacity:1;stroke:#ffffff;stroke-width:3.53413;stroke-linecap:round;stroke-linejoin:round;stroke-miterlimit:4;stroke-dasharray:none;stroke-opacity:1"
       id="ellipse2097"
       cx="454.54755"
       cy="558.07574"
       rx="3.6198726"
       ry="3.011585"
       transform="matrix(0.94467513,-0.32800746,-0.09581597,0.99539907,0,0)" /><path
       style="display:inline;opacity:0.99;fill:none;fill-rule:evenodd;stroke:#000000;stroke-width:5;stroke-linecap:round;stroke-linejoin:round;stroke-miterlimit:4;stroke-dasharray:none;stroke-opacity:1"
       d="m 144.83264,422.32389 c 21.61271,54.28506 -10.71889,53.62719 -4.6688,116.73704 3.52859,36.80757 34.17232,55.67974 18.15255,92.26012"
       id="path2161-5-3" /></g><g
     id="layer9"
     transform="translate(5.3378668,-78.653465)"><g
       id="g1131"
       transform="rotate(-2.5695274,-310.91908,-21697.405)"><path
         id="rect858"
         style="fill:#999999;fill-opacity:0.599251;stroke-width:0.9375"
         d="m -842.3632,432.64397 c 2.19557,-0.43967 4.26146,25.5279 9.84556,28.39486 10.90359,5.59807 61.30878,15.43218 99.25524,1.64304 8.94125,-3.24911 11.64974,-17.55752 13.23509,-18.02544 1.874,-0.55312 -2.09009,17.15672 -12.39185,20.67837 -39.06317,13.35373 -93.65212,6.40615 -103.35837,-3.1587 -3.83373,-3.77789 -9.86941,-28.87454 -6.58567,-29.53213 z" /><path
         id="rect858-3"
         style="fill:#999999;fill-opacity:0.599251;stroke-width:0.9375"
         d="m -529.77069,438.20671 c -2.15573,-0.60554 -0.95756,10.52273 -6.68685,13.08729 -15.76314,7.05593 -80.21478,21.30751 -114.07686,9.17532 -11.20428,-4.01429 -16.99524,-17.80049 -19.06654,-16.32459 -1.59128,1.13387 7.64809,14.80618 17.98033,18.73455 33.61432,12.78032 113.0903,-4.77081 118.42296,-10.93398 3.52178,-4.07026 4.03795,-13.56696 3.42696,-13.73859 z" /><path
         id="rect707"
         style="fill:#000000;stroke-width:0.9375"
         d="m -672.04138,400.10253 c 39.02065,-15.00019 118.11438,-11.83694 135.86165,-11.23949 4.5746,0.154 12.47925,5.51865 18.55636,4.11639 52.40529,-12.09229 37.36242,3.03631 34.424,10.30532 -2.93842,7.26902 -40.54918,23.45045 -40.47508,26.79606 0.18682,8.43447 0.35156,15.52434 -5.1351,12.99073 -7.00579,-3.23512 4.56416,-40.67318 -10.78639,-45.91129 -27.41424,-9.35464 -109.07641,-0.77214 -131.037,7.24796 -13.52032,4.93768 6.5103,40.2225 1.69769,43.38455 -3.73718,2.45545 -9.64181,-22.28009 -15.19141,-26.00527 -3.74683,-2.51507 -16.49992,-4.38088 -26.83091,-0.47138 -0.72801,0.2755 -6.12826,29.79176 -8.59043,28.4133 -4.14343,-2.31974 5.27759,-23.79561 -1.4161,-35.9345 -7.00647,-12.70612 -65.91705,-16.48587 -113.7021,-9.46271 -8.11705,1.19299 -9.70783,4.97635 -9.52174,17.28333 0.16934,11.19964 5.42726,30.25533 3.3877,30.68369 -2.25671,0.47396 -4.49976,-8.70039 -7.268,-16.6655 -3.69189,-10.62275 -5.28402,-24.52236 -4.49769,-25.05815 4.25528,-2.8995 7.13027,-8.29252 23.5039,-10.28002 37.88198,-4.59828 81.64898,-3.13387 96.44521,1.97692 5.98579,2.06757 4.48913,1.35157 13.75251,6.9068 7.85232,4.70902 37.1411,0.98483 37.99455,-1.22861 1.77014,-4.59092 6.61365,-6.99675 8.82838,-7.84813 z" /></g></g><g
     id="g2040"
     style="display:inline"
     transform="translate(5.3378668,-78.653465)"><path
       style="opacity:1;fill:url(#linearGradient2749);fill-opacity:1;stroke:none;stroke-width:5;stroke-linecap:round;stroke-linejoin:round;stroke-miterlimit:4;stroke-dasharray:none;stroke-opacity:1"
       d="m 371.22965,212.49601 c 18.12535,32.03836 135.02672,66.8078 141.81575,256.87826 5.21697,27.46824 10.33459,39.20078 12.46303,56.67848 0,0 4.87982,-14.77866 -2.84462,6.41849 -10.1259,24.44647 -13.56536,40.21057 -23.67248,62.97522 -2.87967,27.50448 -2.25331,86.03993 14.22895,112.04871 14.06959,-6.9332 22.69115,-12.82203 29.09596,-32.13825 10.02435,6.02046 26.86901,8.08158 39.40176,16.23972 12.16935,-17.00027 15.44267,-21.26171 24.81029,-38.48384 12.87746,-0.92056 12.60715,-3.90768 19.99187,1.7649 15.82035,-50.039 20.97475,-122.52127 -4.48407,-178.6658 C 598.1715,425.52756 588.4558,369.91436 579.09452,311.25042 564.98043,222.80218 490.88295,149.94312 421.31953,152.15548 c -24.00975,5.1069 -52.75132,30.9798 -50.08988,60.34053 z"
       id="path2038" /></g><g
     id="g2757"
     style="display:inline"
     transform="translate(5.3378668,-78.653465)"><path
       id="path2755"
       d="m 320.44911,127.52842 c -48.41804,0.79858 -114.8613,36.8147 -147.96981,78.85675 -24.36064,30.93379 -47.55165,55.41397 -71.73796,146.90391 -27.908748,105.57088 -1.044204,213.45265 -2.979995,274.29085 -0.440264,13.83666 17.490055,31.80511 33.154305,38.58364 20.11197,-6.56462 10.33339,-3.58197 22.82438,-1.98255 5.38556,8.88768 1.92827,28.15354 28.80408,38.27345 18.99755,-13.84286 31.86457,-14.03454 43.22006,-14.96881 6.90778,20.56304 44.92064,27.04034 48.97665,28.01801 -4.8538,-15.51152 -5.48262,-20.88795 -11.07143,-33.83114 -59.90604,-54.26844 -99.90845,-144.9751 -102.69097,-224.88329 -3.22209,-92.53142 -2.79821,-86.58201 -3.44045,-130.43332 30.28556,-38.19847 65.0293,-72.9017 108.45165,-93.43607 34.4376,-11.70063 71.72137,-17.58906 104.73015,-21.89496 24.57461,32.56309 49.11626,47.49239 83.43921,75.85931 46.48655,52.16154 45.74419,126.98684 61.61748,185.23413 6.11743,37.68992 11.297,43.83381 6.88735,52.67994 -7.19622,24.44647 -14.82094,46.62797 -24.50953,70.22967 -2.87967,27.50448 0.46719,85.27726 14.19239,112.02733 19.60461,-8.17545 26.84397,-14.21328 30.48595,-30.95271 8.0897,6.98174 27.40776,10.67473 40.03569,16.03063 18.04933,-25.24989 20.09301,-51.56878 43.64119,-36.84026 13.10204,-21.95554 13.99276,-68.61454 10.95056,-112.28719 C 634.14729,495.44896 609.71197,498.55396 583.84791,330.15088 571.057,269.43003 563.8492,222.13743 492.76684,174.59941 465.88464,151.23194 468.06022,154.66665 421.15375,152.02921 403.7834,125.56362 340.95397,126.52667 320.44911,127.52842 Z"
       style="opacity:1;fill:url(#radialGradient3412);fill-opacity:1;stroke:none;stroke-width:5;stroke-linecap:round;stroke-linejoin:round;stroke-miterlimit:4;stroke-dasharray:none;stroke-opacity:1" /></g><g
     id="g2205"
     style="display:inline;opacity:0.99"
     transform="translate(5.3378668,-78.653465)"><path
       style="fill:none;fill-rule:evenodd;stroke:#000000;stroke-width:5;stroke-linecap:round;stroke-linejoin:round;stroke-miterlimit:4;stroke-dasharray:none;stroke-opacity:1"
       d="m 397.95902,166.83395 c -13.18656,9.78405 -32.94292,32.48897 -27.16199,46.64366 4.42457,10.83362 33.50365,29.12625 73.35442,65.48655 85.003,77.5577 50.85023,201.72537 94.23373,279.09382 9.41055,16.78241 12.90412,43.05971 -5.1118,74.70634"
       id="path2161" /><path
       style="fill:none;fill-rule:evenodd;stroke:#000000;stroke-width:5;stroke-linecap:round;stroke-linejoin:miter;stroke-miterlimit:4;stroke-dasharray:none;stroke-opacity:1"
       d="m 369.49124,212.01392 c -87.29678,1.9433 -169.71531,50.19164 -211.93893,114.57302"
       id="path2163" /><path
       style="fill:none;fill-rule:evenodd;stroke:#000000;stroke-width:5;stroke-linecap:round;stroke-linejoin:miter;stroke-miterlimit:4;stroke-dasharray:none;stroke-opacity:1"
       d="m 275.34721,716.00264 c -19.20448,-5.58999 -46.0603,-6.39048 -50.53774,-30.51264 -18.57513,5.35723 -26.606,0.44474 -41.22726,17.68537 -10.11983,-10.28094 -24.77554,-12.86994 -29.70393,-39.16844 -10.39538,0.25545 -13.6224,-4.44904 -22.44633,2.86523 -16.2447,-11.66068 -34.181829,-21.67645 -32.580545,-69.8607 0.668142,-20.10506 -8.848048,-75.13838 -11.060322,-112.85946 -4.65764,-79.41658 5.701231,-117.0021 23.241297,-168.95915 31.18767,-92.38389 91.02898,-146.29717 135.77283,-166.20946 44.74385,-19.9123 158.99861,-32.27948 174.50731,3.5979 72.8793,0.67819 108.35838,57.54608 129.44456,85.92853 37.9646,51.10117 30.82885,139.39464 67.7383,230.27604 33.78731,83.19383 17.78962,162.08081 6.82516,184.56771 -8.33903,-4.7078 -13.09824,-3.78341 -18.83136,-0.81398 -8.69827,14.83003 -7.29527,21.43605 -24.99224,39.44103 -24.98627,-15.36172 -30.07349,-5.23313 -39.53332,-15.86873 -3.21183,16.69934 -3.76728,18.88249 -27.49998,30.5848"
       id="path2165" /><path
       style="fill:none;fill-rule:evenodd;stroke:#000000;stroke-width:5;stroke-linecap:round;stroke-linejoin:miter;stroke-miterlimit:4;stroke-dasharray:none;stroke-opacity:1"
       d="m 264.0625,682.3622 c 0,0 23.4375,49.6875 14.0625,88.75"
       id="path2169" /><path
       id="path2171"
       style="fill:none;fill-rule:evenodd;stroke:#000000;stroke-width:5;stroke-linecap:round;stroke-linejoin:miter;stroke-miterlimit:4;stroke-dasharray:none;stroke-opacity:1"
       d="m 498.3252,595.86182 c -2.95359,45.40744 -0.76859,79.62464 15.06484,110.51032 15.83343,30.88567 45.31528,58.43982 96.95542,90.52117" /><path
       id="path2173"
       style="fill:none;fill-rule:evenodd;stroke:#000000;stroke-width:5;stroke-linecap:round;stroke-linejoin:round;stroke-miterlimit:4;stroke-dasharray:none;stroke-opacity:1"
       d="M 155.46936,756.2677 C 99.717785,768.11359 51.672133,779.85235 8.6425781,796.89331 H 146.33789 c 1.47853,-19.61082 4.54103,-34.57686 9.13147,-40.62561 z" /><path
       style="fill:none;fill-rule:evenodd;stroke:#000000;stroke-width:5;stroke-linecap:round;stroke-linejoin:round;stroke-miterlimit:4;stroke-dasharray:none;stroke-opacity:1"
       d="m 256.83356,588.29969 c 38.84422,1.30638 28.05703,-15.27544 55.27582,-4.68749 14.51582,-14.90203 29.29535,4.67955 79.22984,-18.87255 0,0 -11.92091,8.89275 -27.39447,14.62397 -15.47357,5.73122 -34.10916,11.81654 -46.75725,13.23295 -8.9295,0.99998 -23.82267,0.60936 -36.48347,-0.0313 -12.6608,-0.64062 -24.2611,-4.26562 -24.2611,-4.26562 z"
       id="path2179" /><path
       style="fill:none;fill-rule:evenodd;stroke:#000000;stroke-width:5;stroke-linecap:round;stroke-linejoin:round;stroke-miterlimit:4;stroke-dasharray:none;stroke-opacity:1"
       d="m 256.50995,588.73771 c 59.74872,35.49428 81.60798,21.07997 135.05811,-23.44564"
       id="path2181" /></g></svg>
