<?xml version="1.0" standalone="no"?>
<!DOCTYPE svg PUBLIC "-//W3C//DTD SVG 20010904//EN"
 "http://www.w3.org/TR/2001/REC-SVG-20010904/DTD/svg10.dtd">
<svg version="1.0" xmlns="http://www.w3.org/2000/svg"
 width="700.000000pt" height="700.000000pt" viewBox="0 0 700.000000 700.000000"
 preserveAspectRatio="xMidYMid meet">
<metadata>
Created by potrace 1.11, written by Peter Selinger 2001-2013
</metadata>
<g transform="translate(0.000000,700.000000) scale(0.100000,-0.100000)"
fill="#000000" stroke="none">
<path d="M0 5643 l0 -1356 27 24 c48 44 2696 2560 2763 2625 l65 64 -1428 0
-1427 0 0 -1357z"/>
<path d="M3010 6583 c-92 -10 -257 -48 -365 -84 -439 -149 -829 -492 -1086
-954 -122 -220 -215 -483 -248 -700 -56 -373 -144 -2362 -187 -4222 l-7 -292
-111 -26 c-267 -64 -587 -160 -846 -255 l-135 -49 756 0 756 -1 -9 58 c-12 70
-4 193 15 246 15 44 12 43 157 76 192 44 600 188 928 327 46 19 85 33 87 31 3
-2 12 -56 21 -119 11 -81 14 -143 9 -214 -12 -176 -12 -170 9 -170 27 0 36 36
43 170 8 162 -29 384 -100 591 l-25 71 67 -21 c58 -18 90 -21 261 -21 137 0
229 6 310 18 754 117 1261 354 1557 726 19 24 20 22 20 -175 1 -302 36 -487
129 -684 54 -113 89 -171 163 -265 143 -180 347 -359 623 -546 l147 -99 300 0
301 0 0 23 c0 116 -79 968 -131 1412 -110 949 -204 1426 -414 2100 -338 1086
-445 1379 -648 1780 -401 788 -901 1180 -1542 1211 -72 3 -173 14 -225 24 -52
11 -136 24 -185 30 -85 9 -318 11 -395 3z m422 -868 c49 -56 162 -137 343
-247 313 -190 441 -284 567 -417 297 -311 566 -889 772 -1656 45 -168 116
-480 116 -511 0 -13 -13 -56 -29 -96 -16 -40 -61 -184 -100 -320 -83 -289
-120 -397 -168 -493 -148 -294 -403 -503 -831 -679 -175 -72 -487 -153 -771
-198 -167 -27 -474 -32 -556 -9 -106 30 -191 88 -334 230 -382 379 -677 991
-765 1586 -25 171 -36 331 -41 590 -4 248 -17 419 -55 692 -26 183 -25 186 10
295 153 479 629 879 1359 1144 108 40 408 131 435 133 5 1 26 -19 48 -44z"/>
<path d="M3850 4288 c-102 -22 -191 -52 -288 -100 -103 -50 -125 -69 -103 -91
8 -8 38 3 113 40 115 56 169 75 276 98 142 29 306 14 431 -41 56 -25 71 -24
71 5 0 22 -91 63 -190 86 -72 16 -240 18 -310 3z"/>
<path d="M2070 4130 c-120 -22 -370 -152 -370 -194 0 -28 29 -23 89 15 144 91
240 127 361 136 104 7 215 -18 326 -74 55 -27 77 -34 85 -26 21 21 0 44 -73
78 -138 66 -285 88 -418 65z"/>
<path d="M3740 3950 c-50 -10 -85 -26 -135 -60 -58 -40 -255 -229 -255 -245 0
-7 6 -18 14 -24 12 -10 35 7 125 90 154 142 148 139 143 76 -9 -106 53 -177
158 -185 70 -5 119 15 157 65 34 44 43 125 19 171 -30 58 3 41 164 -81 64 -49
102 -58 108 -25 3 15 -89 93 -191 161 -71 47 -217 74 -307 57z m14 -112 c15
-24 -29 -70 -64 -66 -33 4 -38 40 -10 68 24 24 58 23 74 -2z"/>
<path d="M4407 3862 c-24 -26 -21 -49 8 -68 50 -32 108 24 69 67 -22 24 -56
24 -77 1z"/>
<path d="M2115 3803 c-68 -25 -109 -54 -226 -163 -75 -69 -99 -98 -97 -114 6
-42 36 -26 148 79 109 102 134 119 111 77 -31 -58 6 -158 72 -196 23 -14 58
-27 78 -31 72 -13 161 31 194 96 18 33 20 112 4 140 -10 19 -9 20 12 9 12 -7
41 -30 65 -52 46 -43 77 -47 82 -11 4 28 -89 105 -177 146 -83 39 -190 47
-266 20z m45 -98 c28 -34 -30 -89 -75 -71 -21 8 -19 29 6 60 23 29 50 34 69
11z"/>
<path d="M4391 3716 c-31 -37 9 -103 47 -80 36 23 23 94 -18 94 -10 0 -23 -6
-29 -14z"/>
<path d="M2718 3654 c-4 -3 -4 -43 -1 -88 7 -104 -6 -182 -64 -371 -115 -373
-120 -447 -34 -546 37 -44 123 -91 148 -82 25 10 9 37 -32 56 -54 26 -84 54
-106 102 -35 75 -26 135 65 431 30 98 60 206 65 238 12 64 13 182 2 231 -6 28
-29 44 -43 29z"/>
<path d="M3120 2694 c-45 -20 -70 -43 -70 -66 0 -22 32 -24 50 -3 7 8 30 20
52 27 31 9 38 16 36 32 -4 26 -24 29 -68 10z"/>
<path d="M3800 2264 c-140 -65 -330 -101 -555 -103 -53 -1 -82 -7 -121 -26
-51 -25 -52 -25 -113 -9 -70 18 -93 14 -200 -28 -58 -24 -96 -31 -180 -36 -97
-6 -106 -9 -106 -27 0 -30 260 -158 389 -190 276 -70 463 -1 853 314 66 54
108 95 108 106 0 27 -14 27 -75 -1z m-330 -155 c-245 -86 -363 -104 -604 -93
-150 7 -150 7 -98 20 29 8 70 23 92 34 48 24 119 26 183 4 46 -16 46 -16 83
13 37 28 40 28 211 34 96 4 177 9 180 13 3 3 13 6 22 5 9 0 -22 -14 -69 -30z
m185 13 c-29 -25 -188 -135 -240 -165 -114 -66 -197 -90 -315 -91 -122 -1
-209 18 -328 74 l-77 36 210 -4 c254 -5 323 7 581 97 196 68 181 63 169 53z"/>
</g>
</svg>
