<?xml version="1.0" standalone="no"?>
<!DOCTYPE svg PUBLIC "-//W3C//DTD SVG 20010904//EN"
 "http://www.w3.org/TR/2001/REC-SVG-20010904/DTD/svg10.dtd">
<svg version="1.0" xmlns="http://www.w3.org/2000/svg"
 width="1000.000000pt" height="1000.000000pt" viewBox="0 0 1000.000000 1000.000000"
 preserveAspectRatio="xMidYMid meet">
<metadata>
Created by potrace 1.14, written by Peter Selinger 2001-2017
</metadata>
<g transform="translate(0.000000,1000.000000) scale(0.100000,-0.100000)"
fill="#000000" stroke="none">
<path d="M5 9988 c-3 -7 -4 -2256 -3 -4998 l3 -4985 4995 0 4995 0 0 4995 0
4995 -4993 3 c-3989 2 -4994 0 -4997 -10z m9970 -4988 l0 -4975 -692 -3 c-443
-1 -693 1 -693 8 0 5 -91 70 -202 143 -334 221 -523 369 -727 570 -141 139
-260 283 -344 418 l-57 93 97 50 c153 81 238 172 258 279 8 42 9 42 58 22 19
-8 68 -19 109 -25 104 -16 190 -44 292 -98 l88 -47 64 70 c90 98 162 208 234
361 45 96 68 135 86 143 42 19 115 13 172 -14 30 -14 56 -25 59 -25 8 0 52
109 82 206 97 315 142 739 121 1131 -26 479 -103 829 -290 1313 -122 317 -211
612 -289 957 -39 173 -59 275 -177 878 -170 876 -276 1123 -724 1687 -439 551
-889 817 -1463 863 l-87 7 -33 45 c-72 101 -240 186 -447 227 -153 30 -279 40
-510 39 -346 -1 -710 -45 -1045 -128 -500 -123 -870 -341 -1291 -760 -208
-207 -349 -379 -508 -620 -195 -294 -337 -569 -460 -888 -123 -319 -265 -793
-321 -1072 -110 -552 -122 -1214 -35 -1955 5 -47 25 -215 44 -375 26 -214 38
-366 46 -580 13 -385 36 -563 91 -705 35 -92 89 -174 166 -254 60 -61 233
-196 253 -196 6 0 28 12 47 28 33 24 44 27 107 25 119 -4 123 -7 154 -98 47
-139 114 -230 237 -323 33 -25 86 -70 117 -100 l57 -55 73 74 c95 98 145 121
324 154 78 14 144 25 147 25 3 0 19 -29 36 -65 69 -149 218 -236 511 -301 41
-9 79 -20 83 -24 10 -9 -205 -101 -500 -214 -470 -180 -996 -337 -1026 -307
-18 18 -41 14 -329 -50 -676 -149 -1255 -311 -1733 -484 -72 -26 -141 -48
-155 -49 l-25 -1 -3 4965 c-1 2731 0 4971 3 4978 3 10 1004 12 4977 10 l4973
-3 0 -4975z m-4761 3075 c29 -53 141 -155 426 -390 358 -295 538 -451 665
-579 224 -226 399 -500 529 -828 49 -126 127 -378 119 -390 -2 -5 -14 -8 -27
-8 -12 0 -87 -16 -167 -36 -156 -38 -174 -38 -288 -4 -74 23 -194 26 -531 10
-871 -40 -1495 -174 -1545 -331 -12 -37 -185 -71 -365 -73 l-125 -1 -95 47
c-174 87 -299 104 -714 95 -266 -5 -449 -20 -666 -52 -52 -7 -96 -12 -98 -11
-10 10 -23 305 -28 636 l-7 385 58 80 c292 407 688 754 1163 1018 359 200 787
351 1182 418 135 22 351 46 440 48 54 1 56 0 74 -34z m1047 -2320 c42 -7 90
-20 106 -29 71 -36 97 -131 107 -382 8 -189 13 -214 50 -234 26 -14 28 -14 47
9 15 19 19 39 19 107 l0 84 83 54 c45 30 143 92 218 138 l137 85 31 -191 c17
-105 53 -362 81 -571 59 -445 97 -675 146 -874 l35 -144 -49 -116 c-28 -64
-73 -179 -102 -256 -234 -632 -288 -753 -441 -979 -199 -296 -465 -506 -816
-645 -275 -108 -833 -230 -1238 -270 -409 -40 -721 -6 -873 97 -482 325 -959
1023 -1216 1781 -148 434 -235 947 -215 1256 9 132 0 371 -24 652 l-13 142 22
5 c50 13 341 46 489 55 406 27 772 -4 915 -77 100 -51 122 -127 106 -381 -6
-107 -5 -150 3 -164 20 -30 -3 -124 -110 -457 -101 -314 -118 -445 -73 -575
22 -64 100 -142 176 -178 69 -33 104 -35 113 -7 9 28 2 35 -62 65 -84 38 -118
68 -149 131 -23 48 -27 67 -26 142 1 100 17 168 101 432 112 351 123 404 125
635 2 94 6 178 10 188 5 9 31 23 60 31 132 38 282 27 332 -22 14 -15 59 -92
99 -172 73 -146 95 -177 115 -165 19 12 10 56 -40 208 -65 199 -73 237 -68
298 7 67 32 90 133 123 261 85 795 167 1235 190 108 6 340 -5 421 -19z m687
-3226 c-12 -313 16 -625 76 -863 145 -575 524 -1024 1301 -1540 l160 -106
-3171 0 -3170 0 8 82 c17 192 65 405 91 412 7 2 84 21 172 41 341 80 926 285
1362 478 88 38 103 42 107 28 3 -9 13 -59 23 -111 22 -121 25 -436 4 -524 -12
-55 -12 -61 5 -73 24 -18 31 -17 48 9 39 60 51 358 21 553 -22 152 -67 331
-124 494 l-47 137 60 -24 c130 -53 230 -66 491 -66 385 0 796 62 1290 195 277
75 515 182 705 317 113 81 283 246 369 360 67 88 178 266 200 320 7 17 16 32
19 32 3 0 2 -68 0 -151z"/>
<path d="M5515 6153 c-167 -22 -338 -69 -594 -164 -195 -73 -228 -92 -216
-128 15 -47 36 -45 203 17 392 148 579 191 772 179 121 -8 217 -35 353 -100
121 -57 142 -56 142 4 0 32 -4 36 -80 76 -183 97 -398 140 -580 116z"/>
<path d="M2743 5901 c-119 -30 -198 -75 -285 -162 -87 -87 -103 -122 -68 -151
12 -10 27 -18 32 -18 6 0 40 31 75 70 36 38 86 83 112 100 186 119 483 110
899 -26 155 -51 182 -50 182 6 0 27 -6 34 -42 50 -63 28 -267 88 -393 117
-153 34 -406 41 -512 14z"/>
<path d="M5287 5627 c-37 -13 -100 -46 -139 -73 -79 -53 -368 -328 -368 -350
0 -17 28 -44 47 -44 8 0 67 51 131 113 118 113 224 207 235 207 3 0 1 -15 -4
-32 -23 -82 -3 -160 58 -228 52 -58 107 -82 189 -82 187 1 306 191 222 355
l-19 39 23 -7 c44 -14 78 -36 150 -96 111 -94 171 -131 205 -127 23 2 28 8 31
35 3 28 -1 34 -37 52 -22 12 -75 50 -118 87 -150 126 -239 162 -423 170 -103
4 -122 2 -183 -19z m67 -123 c21 -20 20 -32 -4 -71 -23 -39 -52 -55 -88 -51
-56 6 -34 95 31 123 41 18 43 18 61 -1z"/>
<path d="M6285 5515 c-38 -37 -32 -76 16 -100 38 -20 62 -19 93 6 52 41 16
119 -56 119 -17 0 -39 -10 -53 -25z"/>
<path d="M3071 5445 c-69 -20 -143 -57 -206 -104 -81 -61 -305 -282 -305 -300
0 -23 20 -41 45 -41 12 0 80 57 174 145 85 80 157 145 161 145 4 0 0 -26 -8
-57 -14 -52 -13 -64 1 -113 46 -158 226 -232 379 -157 71 35 114 85 135 157
14 49 15 61 1 113 -8 31 -13 57 -10 57 10 0 71 -47 119 -92 55 -51 72 -57 97
-32 32 31 16 58 -81 135 -126 100 -238 147 -368 155 -54 3 -98 -1 -134 -11z
m34 -155 c15 -46 -47 -113 -99 -108 -23 2 -32 9 -34 25 -10 71 112 148 133 83z"/>
<path d="M6270 5310 c-40 -40 -15 -130 36 -130 57 0 83 73 43 124 -24 31 -52
33 -79 6z"/>
<path d="M4462 3857 c-18 -5 -52 -27 -75 -48 -35 -32 -40 -40 -31 -56 17 -27
41 -27 75 1 16 14 49 31 72 37 54 16 71 31 62 58 -7 24 -45 27 -103 8z"/>
<path d="M5421 3249 c-83 -39 -220 -85 -329 -110 -65 -15 -145 -22 -322 -28
-246 -8 -273 -13 -341 -61 -29 -21 -30 -21 -82 -3 -33 11 -81 18 -132 18 -71
0 -89 -4 -162 -38 -105 -48 -192 -67 -319 -67 -107 0 -139 -11 -133 -45 6 -27
63 -64 224 -144 375 -186 637 -216 920 -104 113 45 170 77 315 174 130 88 479
364 487 387 9 22 -11 47 -38 49 -13 1 -53 -12 -88 -28z m-451 -219 c-28 -16
-316 -98 -402 -115 -116 -22 -276 -29 -463 -20 l-160 8 50 17 c28 10 76 29
109 44 71 32 147 34 226 6 70 -25 102 -25 124 -1 42 47 82 56 271 62 99 3 198
6 220 7 28 1 35 -1 25 -8z m220 -4 c0 -7 -228 -165 -296 -205 -98 -58 -216
-106 -308 -126 -106 -24 -308 -16 -416 15 -74 21 -294 110 -288 115 2 2 97 -1
213 -6 359 -16 520 9 883 132 97 34 184 65 192 70 17 10 20 10 20 5z"/>
</g>
</svg>
